<svg width="37" height="32" viewBox="0 0 37 32" fill="none" xmlns="http://www.w3.org/2000/svg">
<path d="M32.7012 20.2382C33.5081 20.6406 34.2224 21.1425 34.687 21.6335C35.1516 22.1245 35.3284 22.5644 35.1786 22.8564C35.1053 23.0018 34.9537 23.1064 34.7326 23.1643C34.5115 23.2222 34.225 23.2323 33.8898 23.1939C33.5545 23.1555 33.177 23.0694 32.7789 22.9406C32.3808 22.8118 31.9698 22.6427 31.5696 22.4431C30.7627 22.0407 30.0484 21.5388 29.5838 21.0478C29.1192 20.5568 28.9424 20.1169 29.0922 19.8249C29.2421 19.5329 29.7064 19.4127 30.3829 19.4908C31.0594 19.5688 31.8928 19.8388 32.6997 20.2412L32.7012 20.2382ZM28.0196 21.6757C27.9106 22.22 27.5007 22.6761 26.8798 22.9438C26.2589 23.2115 25.4779 23.2689 24.7084 23.1035C23.9389 22.9382 23.2438 22.5635 22.7758 22.0618C22.3077 21.5602 22.105 20.9725 22.2121 20.4279C22.3207 19.8838 22.7301 19.4277 23.3503 19.1598C23.9706 18.8918 24.751 18.8339 25.5203 18.9987C26.2898 19.164 26.9849 19.5386 27.453 20.0403C27.921 20.542 28.1237 21.1297 28.0166 21.6743L28.0196 21.6757ZM20.5055 20.0488C20.9707 20.645 21.0259 21.4868 20.659 22.3892C20.2921 23.2917 19.5331 24.181 18.5486 24.8621C18.0604 25.1998 17.5315 25.4761 16.9919 25.6751C16.4524 25.8742 15.9128 25.9922 15.4039 26.0223C14.8951 26.0524 14.427 25.9941 14.0264 25.8506C13.6257 25.7072 13.3004 25.4815 13.0691 25.1864C12.6029 24.59 12.5473 23.7477 12.9146 22.8445C13.2818 21.9414 14.0418 21.0513 15.0275 20.3701C15.5157 20.0327 16.0447 19.7566 16.5842 19.5578C17.1238 19.359 17.6633 19.2414 18.172 19.2115C18.6807 19.1817 19.1486 19.2403 19.549 19.3839C19.9493 19.5276 20.2744 19.7535 20.5055 20.0488ZM8.42642 27.6353C7.08759 29.0181 5.60009 30.1543 4.29075 30.7943C2.9814 31.4343 1.95732 31.5257 1.44349 31.0484C1.18865 30.8119 1.06705 30.4425 1.08564 29.9615C1.10423 29.4804 1.26264 28.897 1.55182 28.2447C1.841 27.5924 2.25528 26.8839 2.77099 26.1598C3.28669 25.4356 3.89371 24.71 4.55734 24.0243C5.2208 23.339 5.92781 22.7071 6.63798 22.1648C7.34815 21.6224 8.04757 21.1802 8.6963 20.8633C9.34502 20.5465 9.93034 20.3613 10.4188 20.3183C10.9073 20.2753 11.2894 20.3754 11.5432 20.6127C11.7981 20.8492 11.9197 21.2186 11.9011 21.6996C11.8825 22.1807 11.7241 22.7641 11.4349 23.4164C11.1457 24.0687 10.7314 24.7772 10.2157 25.5013C9.70003 26.2255 9.09302 26.9511 8.42939 27.6368L8.42642 27.6353ZM29.3482 17.2165C29.4969 17.3721 29.6315 17.5379 29.7445 17.7046C29.8575 17.8712 29.9466 18.0353 30.0067 18.1876C30.0668 18.3399 30.0967 18.4772 30.0948 18.5919C30.0928 18.7065 30.059 18.7961 29.9953 18.8556C29.9318 18.9155 29.8397 18.944 29.7242 18.9396C29.6086 18.9352 29.4719 18.898 29.3218 18.83C29.1718 18.762 29.0114 18.6647 28.8498 18.5435C28.6882 18.4223 28.5287 18.2798 28.3802 18.124C28.0812 17.8108 27.845 17.4627 27.7235 17.156C27.6019 16.8493 27.6048 16.609 27.7317 16.4878C27.7951 16.428 27.8873 16.3994 28.0028 16.4038C28.1184 16.4082 28.2551 16.4455 28.4051 16.5135C28.5552 16.5814 28.7156 16.6788 28.8772 16.7999C29.0387 16.9211 29.1983 17.0637 29.3467 17.2195L29.3482 17.2165ZM26.4831 16.0716C26.6865 16.2352 26.8707 16.4184 27.0252 16.6106C27.1796 16.8028 27.3011 17.0004 27.3829 17.1919C27.4647 17.3834 27.5051 17.5651 27.5018 17.7266C27.4984 17.8881 27.4514 18.0263 27.3635 18.1332C27.1873 18.3494 26.8555 18.4258 26.441 18.3457C26.0266 18.2655 25.5634 18.0354 25.1533 17.7057C24.9498 17.5422 24.7656 17.359 24.6112 17.1668C24.4568 16.9746 24.3352 16.777 24.2535 16.5855C24.1717 16.394 24.1313 16.2123 24.1346 16.0508C24.138 15.8893 24.1849 15.7511 24.2729 15.6442C24.4491 15.428 24.7809 15.3515 25.1953 15.4317C25.6098 15.5118 26.073 15.742 26.4831 16.0716ZM26.6727 13.5998C26.8528 13.9852 26.9554 14.3883 26.9581 14.7212C26.9608 15.0542 26.8634 15.2899 26.6871 15.3769C26.5096 15.4631 26.2673 15.3923 26.0135 15.18C25.7596 14.9677 25.5151 14.6312 25.3335 14.2446C25.1528 13.8577 25.0503 13.4531 25.0484 13.1196C25.0466 12.7861 25.1455 12.551 25.3236 12.4661C25.5015 12.3813 25.7437 12.4532 25.9972 12.666C26.2506 12.8788 26.4946 13.2151 26.6757 13.6013L26.6727 13.5998ZM15.1511 17.3454C14.3423 18.1196 13.4096 18.7055 12.5579 18.9743C11.7063 19.2431 11.0054 19.1728 10.6092 18.7789C10.4129 18.5838 10.2974 18.3149 10.2693 17.9877C10.2412 17.6606 10.3011 17.2815 10.4456 16.8721C10.5901 16.4627 10.8163 16.031 11.1113 15.6017C11.4063 15.1725 11.7643 14.754 12.165 14.3702C12.5658 13.9864 13.0014 13.6449 13.4468 13.3652C13.8923 13.0855 14.3388 12.8731 14.7609 12.7401C15.1829 12.6071 15.5723 12.5561 15.9067 12.5902C16.2411 12.6242 16.514 12.7425 16.7098 12.9383C16.9062 13.1334 17.0217 13.4022 17.0497 13.7294C17.0778 14.0566 17.0179 14.4357 16.8734 14.8451C16.729 15.2545 16.5028 15.6862 16.2078 16.1154C15.9127 16.5447 15.5547 16.9632 15.1541 17.3469L15.1511 17.3454ZM22.8467 15.5451C22.9086 15.8502 22.9005 16.1663 22.8228 16.4753C22.7451 16.7843 22.5993 17.0801 22.3939 17.3458C22.1884 17.6115 21.9272 17.8419 21.6253 18.0238C21.3234 18.2056 20.9866 18.3355 20.6343 18.4058C19.9243 18.5482 19.1939 18.4407 18.6035 18.1068C18.0131 17.773 17.6109 17.2401 17.4853 16.6252C17.4227 16.3202 17.4302 16.0042 17.5073 15.6951C17.5843 15.3861 17.7295 15.0901 17.9344 14.8242C18.1393 14.5582 18.4 14.3275 18.7015 14.1451C19.0031 13.9628 19.3395 13.8325 19.6917 13.7616C20.0436 13.6907 20.4043 13.6805 20.7531 13.7317C21.102 13.7829 21.4322 13.8944 21.7249 14.0599C22.0177 14.2254 22.2671 14.4416 22.4591 14.6962C22.651 14.9508 22.7817 15.2387 22.8437 15.5436L22.8467 15.5451ZM24.637 11.3899C24.6978 11.6721 24.7214 11.9599 24.7064 12.237C24.6914 12.5141 24.6381 12.775 24.5495 13.0048C24.461 13.2345 24.3389 13.4287 24.1903 13.5762C24.0416 13.7236 23.8694 13.8215 23.6833 13.8642C23.4972 13.9073 23.3009 13.8943 23.1057 13.826C22.9104 13.7577 22.72 13.6354 22.5453 13.4661C22.3706 13.2968 22.2151 13.0838 22.0876 12.8393C21.9601 12.5948 21.8632 12.3236 21.8024 12.0412C21.7416 11.759 21.718 11.4712 21.733 11.1941C21.748 10.917 21.8013 10.6561 21.8899 10.4263C21.9784 10.1966 22.1005 10.0024 22.2491 9.85492C22.3977 9.70746 22.57 9.60959 22.7561 9.56689C22.9421 9.5238 23.1384 9.53678 23.3337 9.60509C23.529 9.67341 23.7194 9.79572 23.8941 9.96503C24.0688 10.1343 24.2243 10.3473 24.3518 10.5918C24.4793 10.8363 24.5762 11.1075 24.637 11.3899ZM25.4834 8.08771C25.5339 8.55057 25.5109 9.00176 25.4195 9.34294C25.328 9.68413 25.1755 9.88764 24.9951 9.90913C24.8139 9.92972 24.6196 9.76505 24.4548 9.45128C24.2901 9.13751 24.1684 8.7003 24.1164 8.23567C24.091 8.00526 24.0836 7.7752 24.0945 7.55864C24.1054 7.34208 24.1346 7.14328 24.1802 6.97358C24.2258 6.80388 24.2871 6.66662 24.3604 6.56964C24.4338 6.47266 24.5179 6.41787 24.6078 6.40838C24.789 6.38904 24.9831 6.55466 25.1475 6.86893C25.312 7.1832 25.4333 7.62045 25.4849 8.08478L25.4834 8.08771ZM21.1538 9.98472C20.8757 10.3116 20.5654 10.6068 20.2406 10.8534C19.9159 11.1 19.5831 11.2931 19.2613 11.4217C18.9395 11.5504 18.6351 11.612 18.3654 11.603C18.0958 11.594 17.8662 11.5147 17.6899 11.3694C17.3349 11.0768 17.2171 10.5354 17.3622 9.86391C17.5073 9.19243 17.9036 8.44578 18.464 7.78784C18.7417 7.46142 19.0516 7.16662 19.3759 6.92028C19.7002 6.67394 20.0326 6.48089 20.354 6.35216C20.6754 6.22343 20.9796 6.16155 21.2491 6.17003C21.5187 6.17852 21.7483 6.25722 21.925 6.40163C22.2813 6.69332 22.4003 7.23464 22.2557 7.90657C22.111 8.5785 21.7147 9.326 21.1538 9.98472ZM26.1757 3.88267C25.971 4.22923 25.7416 4.55671 25.5005 4.84639C25.2593 5.13608 25.0112 5.3823 24.7703 5.57101C24.5294 5.75972 24.3004 5.88721 24.0963 5.94621C23.8923 6.00521 23.7173 5.99456 23.5812 5.91486C23.3072 5.7533 23.2084 5.32114 23.3062 4.7132C23.4041 4.10527 23.6907 3.37123 24.1032 2.67216C24.3078 2.32561 24.5373 1.99814 24.7784 1.70845C25.0195 1.41877 25.2676 1.17254 25.5086 0.98383C25.7495 0.795123 25.9785 0.667629 26.1825 0.608632C26.3866 0.549631 26.5616 0.560283 26.6977 0.639978C26.9716 0.801538 27.0705 1.2337 26.9727 1.84164C26.8748 2.44957 26.5882 3.18361 26.1757 3.88267Z" fill="url(#paint0_linear_4651_6238)"/>
<defs>
<linearGradient id="paint0_linear_4651_6238" x1="16.4452" y1="11.8808" x2="32.0008" y2="23.1997" gradientUnits="userSpaceOnUse">
<stop stop-color="#03407E"/>
<stop offset="1" stop-color="#0EACFE"/>
</linearGradient>
</defs>
</svg>
