<svg viewBox="0 0 404 302" fill="none" xmlns="http://www.w3.org/2000/svg">
<path fill-rule="evenodd" clip-rule="evenodd" d="M316.902 300C338.807 273.926 352 240.29 352 203.571C352 120.729 284.843 53.5713 202 53.5713C119.157 53.5713 52 120.729 52 203.571C52 240.29 65.1931 273.926 87.0976 300H316.902Z" fill="#F0F3FC"/>
<g opacity="0.15">
<path fill-rule="evenodd" clip-rule="evenodd" d="M288.579 161.909C288.415 162.104 288.309 162.34 288.272 162.592L283.451 195.407C283.36 196.022 283.695 196.62 284.266 196.865L288.579 198.713C288.646 198.742 288.713 198.765 288.78 198.782C288.963 198.829 289.119 198.979 289.119 199.168V209.291C289.119 209.669 289.425 209.976 289.804 209.976C290.182 209.976 290.488 209.669 290.488 209.291V197.464C290.488 197.461 290.488 197.457 290.488 197.454L290.488 160.578C290.488 160.258 290.09 160.113 289.884 160.357L288.579 161.909Z" fill="#9D9FA4"/>
<path fill-rule="evenodd" clip-rule="evenodd" d="M288.579 161.224C288.415 161.419 288.309 161.655 288.272 161.907L283.451 194.722C283.36 195.337 283.695 195.935 284.266 196.18L288.579 198.028C288.646 198.057 288.713 198.08 288.78 198.097C288.963 198.145 289.119 198.294 289.119 198.483V208.606C289.119 208.984 289.425 209.291 289.804 209.291C290.182 209.291 290.488 208.984 290.488 208.606V196.779C290.488 196.776 290.488 196.773 290.488 196.769L290.488 159.893C290.488 159.573 290.09 159.428 289.884 159.673L288.579 161.224Z" fill="#BCBEC4"/>
<path fill-rule="evenodd" clip-rule="evenodd" d="M249.747 233.608C249.998 233.652 250.256 233.626 250.492 233.532L281.321 221.3C281.899 221.071 282.25 220.482 282.176 219.865L281.621 215.206C281.612 215.134 281.598 215.064 281.58 214.997C281.529 214.815 281.581 214.606 281.744 214.511L290.511 209.45C290.839 209.26 290.951 208.842 290.762 208.514C290.573 208.186 290.154 208.074 289.826 208.263L279.582 214.178C279.58 214.179 279.578 214.18 279.576 214.182L273.219 217.851L247.64 232.62C247.363 232.78 247.436 233.198 247.751 233.254L249.747 233.608Z" fill="#9D9FA4"/>
<path fill-rule="evenodd" clip-rule="evenodd" d="M249.405 233.266C249.655 233.31 249.913 233.284 250.149 233.19L280.979 220.958C281.556 220.729 281.907 220.14 281.834 219.523L281.278 214.863C281.269 214.791 281.256 214.722 281.237 214.655C281.187 214.473 281.238 214.263 281.402 214.169L290.169 209.107C290.496 208.918 290.608 208.499 290.419 208.172C290.23 207.844 289.811 207.732 289.484 207.921L279.24 213.835C279.238 213.837 279.235 213.838 279.233 213.839L247.297 232.278C247.02 232.437 247.094 232.855 247.409 232.911L249.405 233.266Z" fill="#BCBEC4"/>
<path fill-rule="evenodd" clip-rule="evenodd" d="M331.7 231.956C331.614 231.717 331.462 231.507 331.263 231.349L305.255 210.766C304.767 210.381 304.082 210.372 303.584 210.744L299.827 213.555C299.769 213.598 299.715 213.645 299.667 213.694C299.534 213.829 299.327 213.889 299.163 213.795L290.397 208.733C290.069 208.544 289.65 208.656 289.461 208.984C289.272 209.311 289.384 209.73 289.712 209.919L299.955 215.833C299.958 215.835 299.96 215.836 299.962 215.838L331.898 234.276C332.175 234.436 332.501 234.163 332.392 233.863L331.7 231.956Z" fill="#9D9FA4"/>
<path fill-rule="evenodd" clip-rule="evenodd" d="M331.7 231.272C331.614 231.033 331.462 230.823 331.263 230.665L305.255 210.082C304.767 209.696 304.082 209.687 303.584 210.059L299.827 212.87C299.769 212.913 299.715 212.96 299.667 213.01C299.534 213.144 299.327 213.205 299.163 213.11L290.397 208.049C290.069 207.859 289.65 207.972 289.461 208.299C289.272 208.627 289.384 209.046 289.712 209.235L299.955 215.149C299.957 215.15 299.96 215.152 299.962 215.153L331.898 233.591C332.175 233.751 332.501 233.478 332.392 233.178L331.7 231.272Z" fill="#BCBEC4"/>
<path fill-rule="evenodd" clip-rule="evenodd" d="M291.564 211.38C292.542 210.962 293.228 209.991 293.228 208.86C293.228 207.347 292.001 206.12 290.488 206.12C288.975 206.12 287.749 207.347 287.749 208.86C287.749 209.991 288.435 210.962 289.413 211.38L283.982 302H296.995L291.564 211.38Z" fill="#9D9FA4"/>
<path fill-rule="evenodd" clip-rule="evenodd" d="M290.879 211.38C291.857 210.962 292.543 209.991 292.543 208.86C292.543 207.347 291.317 206.12 289.804 206.12C288.291 206.12 287.064 207.347 287.064 208.86C287.064 209.991 287.75 210.962 288.728 211.38L283.297 302H296.31L290.879 211.38Z" fill="#BCBEC4"/>
</g>
<g opacity="0.6">
<rect x="56" y="176" width="26.7138" height="62.9968" rx="13.3569" fill="#E9EBF2"/>
<rect x="68.7589" y="201.518" width="1.59486" height="98.4823" rx="0.797428" fill="#E1E2E5"/>
<rect x="75.3384" y="205.02" width="1.59486" height="13.443" rx="0.797428" transform="rotate(30 75.3384 205.02)" fill="#E1E2E5"/>
<rect width="1.59486" height="18.9128" rx="0.797428" transform="matrix(0.866025 -0.5 -0.5 -0.866025 69.2009 226.49)" fill="#E1E2E5"/>
</g>
<rect x="91" y="124" width="38.1994" height="90.0821" rx="19.0997" fill="#E9EBF2"/>
<rect x="109.245" y="160.489" width="2.28056" height="140.825" rx="1.14028" fill="#E1E2E5"/>
<rect x="118.653" y="165.496" width="2.28056" height="19.2228" rx="1.14028" transform="rotate(30 118.653 165.496)" fill="#E1E2E5"/>
<rect width="2.28056" height="27.0444" rx="1.14028" transform="matrix(0.866025 -0.5 -0.5 -0.866025 109.877 196.198)" fill="#E1E2E5"/>
<path opacity="0.8" fill-rule="evenodd" clip-rule="evenodd" d="M137 105.932C137 106.001 136.999 106.07 136.997 106.138C141.285 106.245 144.729 109.754 144.729 114.068C144.729 118.381 141.287 121.89 137 121.997V122H136.804C136.802 122 136.799 122 136.797 122C136.794 122 136.791 122 136.789 122H121.136V121.997C121.068 121.999 121 122 120.932 122C116.551 122 113 118.449 113 114.068C113 109.687 116.551 106.136 120.932 106.136C121.001 106.136 121.07 106.136 121.138 106.138C121.136 106.07 121.136 106.001 121.136 105.932C121.136 101.551 124.687 98 129.068 98C133.449 98 137 101.551 137 105.932Z" fill="white"/>
<path opacity="0.6" fill-rule="evenodd" clip-rule="evenodd" d="M271 124.644C271 124.667 271 124.69 270.999 124.713C272.428 124.748 273.576 125.918 273.576 127.356C273.576 128.794 272.429 129.963 271 129.999V130H270.935C270.934 130 270.933 130 270.932 130C270.931 130 270.93 130 270.929 130H265.712V129.999C265.689 130 265.667 130 265.644 130C264.184 130 263 128.816 263 127.356C263 125.896 264.184 124.712 265.644 124.712C265.667 124.712 265.69 124.712 265.713 124.713C265.712 124.69 265.712 124.667 265.712 124.644C265.712 123.184 266.896 122 268.356 122C269.816 122 271 123.184 271 124.644Z" fill="white"/>
<path fill-rule="evenodd" clip-rule="evenodd" d="M200.2 75.8281C200.2 68.7434 205.943 63 213.028 63C218.286 63 222.804 66.1628 224.786 70.6895C226.061 69.7876 227.617 69.2576 229.298 69.2576C233.252 69.2576 236.52 72.1909 237.046 76H239.98C243.57 76 246.48 78.9101 246.48 82.5C246.48 86.0898 243.57 89 239.98 89H201.5C197.91 89 195 86.0898 195 82.5C195 79.3541 197.235 76.7302 200.203 76.1293C200.201 76.0292 200.2 75.9288 200.2 75.8281Z" fill="white"/>
<path opacity="0.6" fill-rule="evenodd" clip-rule="evenodd" d="M159.121 144.233C159.121 141.343 161.464 139 164.354 139C166.499 139 168.342 140.29 169.15 142.137C169.67 141.769 170.305 141.553 170.991 141.553C172.604 141.553 173.937 142.749 174.152 144.303H175.348C176.813 144.303 178 145.49 178 146.955C178 148.419 176.813 149.606 175.348 149.606H159.652C158.187 149.606 157 148.419 157 146.955C157 145.671 157.912 144.601 159.123 144.356C159.122 144.315 159.121 144.274 159.121 144.233Z" fill="white"/>
<path fill-rule="evenodd" clip-rule="evenodd" d="M317.382 81.71C317.124 82.016 316.957 82.3876 316.899 82.7832L309.318 134.384C309.176 135.351 309.702 136.292 310.6 136.677L317.382 139.584C317.487 139.629 317.593 139.664 317.698 139.692C317.986 139.766 318.231 140.001 318.231 140.298V156.217C318.231 156.811 318.713 157.293 319.308 157.293C319.902 157.293 320.385 156.811 320.385 156.217V137.619C320.385 137.614 320.385 137.609 320.385 137.604L320.385 79.6164C320.385 79.114 319.757 78.8854 319.434 79.2699L317.382 81.71Z" fill="#DCDFE6"/>
<path fill-rule="evenodd" clip-rule="evenodd" d="M317.382 80.6331C317.124 80.9391 316.957 81.3107 316.899 81.7063L309.318 133.307C309.176 134.274 309.702 135.215 310.6 135.6L317.382 138.507C317.487 138.552 317.593 138.588 317.698 138.615C317.986 138.69 318.231 138.924 318.231 139.221V155.14C318.231 155.734 318.713 156.217 319.308 156.217C319.902 156.217 320.385 155.734 320.385 155.14V136.542C320.385 136.537 320.385 136.532 320.385 136.527L320.385 78.5395C320.385 78.0371 319.757 77.8085 319.434 78.193L317.382 80.6331Z" fill="#E9EBF2"/>
<path fill-rule="evenodd" clip-rule="evenodd" d="M256.32 194.455C256.714 194.525 257.119 194.484 257.491 194.336L305.97 175.101C306.878 174.741 307.43 173.814 307.314 172.844L306.44 165.518C306.427 165.404 306.405 165.295 306.376 165.19C306.296 164.903 306.377 164.574 306.635 164.425L320.42 156.466C320.935 156.169 321.112 155.51 320.814 154.995C320.517 154.48 319.858 154.304 319.343 154.601L303.235 163.901C303.232 163.903 303.228 163.905 303.224 163.907L253.006 192.901C252.571 193.152 252.686 193.81 253.181 193.898L256.32 194.455Z" fill="#DCDFE6"/>
<path fill-rule="evenodd" clip-rule="evenodd" d="M255.782 193.917C256.175 193.987 256.581 193.946 256.952 193.798L305.431 174.563C306.339 174.203 306.891 173.276 306.775 172.306L305.902 164.979C305.888 164.866 305.866 164.757 305.837 164.652C305.758 164.365 305.839 164.036 306.096 163.887L319.882 155.928C320.397 155.631 320.573 154.972 320.276 154.457C319.979 153.942 319.32 153.766 318.805 154.063L302.697 163.363C302.693 163.365 302.69 163.367 302.686 163.369L252.467 192.363C252.032 192.614 252.148 193.272 252.642 193.36L255.782 193.917Z" fill="#E9EBF2"/>
<path fill-rule="evenodd" clip-rule="evenodd" d="M385.189 191.858C385.053 191.482 384.815 191.151 384.501 190.903L343.604 158.537C342.838 157.931 341.76 157.916 340.977 158.501L335.069 162.921C334.978 162.99 334.894 163.063 334.817 163.141C334.609 163.353 334.283 163.448 334.026 163.299L320.24 155.34C319.725 155.042 319.067 155.219 318.769 155.734C318.472 156.249 318.648 156.908 319.163 157.205L335.27 166.504C335.274 166.507 335.278 166.509 335.282 166.511L385.501 195.505C385.936 195.756 386.448 195.328 386.276 194.855L385.189 191.858Z" fill="#DCDFE6"/>
<path fill-rule="evenodd" clip-rule="evenodd" d="M385.189 190.781C385.053 190.405 384.815 190.075 384.501 189.826L343.604 157.46C342.838 156.854 341.76 156.839 340.977 157.424L335.069 161.845C334.978 161.913 334.894 161.986 334.817 162.064C334.609 162.276 334.283 162.371 334.026 162.222L320.24 154.263C319.725 153.965 319.067 154.142 318.769 154.657C318.472 155.172 318.648 155.831 319.163 156.128L335.27 165.428C335.274 165.43 335.278 165.432 335.282 165.434L385.501 194.428C385.936 194.679 386.448 194.251 386.276 193.778L385.189 190.781Z" fill="#E9EBF2"/>
<path fill-rule="evenodd" clip-rule="evenodd" d="M322.076 159.501C323.614 158.844 324.692 157.317 324.692 155.538C324.692 153.159 322.764 151.231 320.385 151.231C318.006 151.231 316.077 153.159 316.077 155.538C316.077 157.317 317.155 158.844 318.693 159.501L310.154 302H330.615L322.076 159.501Z" fill="#DCDFE6"/>
<path fill-rule="evenodd" clip-rule="evenodd" d="M320.999 159.501C322.537 158.844 323.615 157.317 323.615 155.538C323.615 153.159 321.687 151.231 319.308 151.231C316.929 151.231 315 153.159 315 155.538C315 157.317 316.078 158.844 317.616 159.501L309.077 302H329.538L320.999 159.501Z" fill="#E9EBF2"/>
<path d="M340.906 299H329.967C317.293 299 322.761 295.234 325.968 294.503C318.801 291.947 324.082 287.131 327.704 289.14C325.441 280.375 333.174 282.201 334.683 287.131C337.7 282.019 342.981 284.575 339.775 290.053C345.244 287.679 345.244 292.427 342.981 293.887C348.45 294.8 345.394 296.512 342.376 296.512C345.96 298.52 343.319 299 340.906 299Z" fill="#D7D8DE"/>
<path d="M292.906 299H281.967C269.293 299 274.761 295.234 277.968 294.503C270.801 291.947 276.082 287.131 279.704 289.14C277.441 280.375 285.174 282.201 286.683 287.131C289.7 282.019 294.981 284.575 291.775 290.053C297.244 287.679 297.244 292.427 294.981 293.887C300.45 294.8 297.394 296.512 294.376 296.512C297.96 298.52 295.319 299 292.906 299Z" fill="#D7D8DE"/>
<path d="M325.538 300H304.116C279.296 300 290.004 292.938 296.283 291.569C282.248 286.776 292.59 277.746 299.684 281.512C295.252 265.079 310.395 268.503 313.35 277.746C319.259 268.16 329.601 272.953 323.322 283.224C334.033 278.774 334.033 287.675 329.601 290.414C340.312 292.126 334.326 295.335 328.416 295.335C335.434 299.101 330.263 300 325.538 300Z" fill="#E1E1E6"/>
<path d="M282.403 279.831C282.26 278.833 281.842 277.83 280.992 277.143C282.981 277.205 283.738 277.746 284.561 278.553C286.552 280.504 285.486 282.886 284.318 282.504C283.151 282.123 282.552 280.865 282.403 279.831Z" fill="#E5E6ED"/>
<path d="M282.247 277.672C284.329 278.69 285.117 281.384 285.398 282.717L285.133 282.784C284.777 279.991 283.372 278.235 282.247 277.672C282.212 277.654 282.175 277.637 282.138 277.621C282.174 277.636 282.211 277.653 282.247 277.672Z" fill="#727785"/>
<path d="M284.141 278.4C284.484 278.829 284.38 279.487 284.305 279.802L284.242 279.789C284.449 279.154 284.325 278.635 284.141 278.4C284.135 278.393 284.129 278.385 284.123 278.378C284.129 278.385 284.135 278.392 284.141 278.4Z" fill="#727785"/>
<path d="M283.137 278.774C283.308 279.023 283.65 279.077 283.817 279.089L283.819 279.054C283.474 279.058 283.23 278.909 283.137 278.774C283.134 278.77 283.131 278.766 283.128 278.761C283.131 278.766 283.134 278.77 283.137 278.774Z" fill="#727785"/>
<path d="M284.96 279.391C285.181 279.894 284.911 280.503 284.758 280.788L284.7 280.759C285.063 280.199 285.078 279.665 284.96 279.391C284.956 279.382 284.952 279.373 284.948 279.365C284.952 279.373 284.956 279.382 284.96 279.391Z" fill="#727785"/>
<path d="M283.24 279.721C283.547 280.177 284.205 280.276 284.528 280.3L284.535 280.235C283.867 280.241 283.409 279.967 283.24 279.721C283.235 279.713 283.23 279.705 283.225 279.697C283.23 279.705 283.235 279.713 283.24 279.721Z" fill="#727785"/>
<path d="M283.228 280.768C283.655 281.432 284.542 281.599 284.975 281.644L284.982 281.552C284.087 281.536 283.463 281.127 283.228 280.768C283.22 280.757 283.213 280.745 283.206 280.733C283.213 280.745 283.22 280.757 283.228 280.768Z" fill="#727785"/>
<path d="M341.01 282.284C341.591 281.46 342.419 280.757 343.489 280.531C341.69 279.682 340.769 279.821 339.669 280.165C337.009 280.997 336.876 283.604 338.089 283.795C339.303 283.985 340.408 283.137 341.01 282.284Z" fill="#E5E6ED"/>
<path d="M342.13 280.432C339.814 280.393 337.887 282.434 337.031 283.494L337.237 283.674C338.823 281.347 340.872 280.422 342.13 280.432C342.17 280.432 342.211 280.434 342.251 280.436C342.212 280.433 342.171 280.432 342.13 280.432Z" fill="#727785"/>
<path d="M340.113 280.219C339.612 280.446 339.406 281.079 339.329 281.393L339.392 281.411C339.496 280.751 339.842 280.345 340.113 280.219C340.122 280.215 340.13 280.212 340.139 280.208C340.131 280.211 340.122 280.215 340.113 280.219Z" fill="#727785"/>
<path d="M340.837 281.009C340.572 281.153 340.243 281.045 340.089 280.98L340.103 280.948C340.408 281.108 340.693 281.086 340.837 281.009C340.842 281.007 340.847 281.004 340.851 281.001C340.847 281.004 340.842 281.007 340.837 281.009Z" fill="#727785"/>
<path d="M338.933 280.73C338.507 281.077 338.471 281.743 338.478 282.066L338.543 282.067C338.474 281.402 338.704 280.921 338.933 280.73C338.94 280.724 338.948 280.718 338.956 280.712C338.948 280.718 338.941 280.723 338.933 280.73Z" fill="#727785"/>
<path d="M340.315 281.805C339.834 282.073 339.203 281.862 338.905 281.736L338.928 281.675C339.52 281.984 340.053 281.948 340.315 281.805C340.323 281.801 340.331 281.796 340.339 281.791C340.332 281.796 340.323 281.801 340.315 281.805Z" fill="#727785"/>
<path d="M339.85 282.744C339.167 283.142 338.302 282.887 337.895 282.73L337.931 282.645C338.736 283.037 339.477 282.957 339.85 282.744C339.861 282.737 339.873 282.73 339.885 282.723C339.874 282.73 339.862 282.737 339.85 282.744Z" fill="#727785"/>
<path d="M318.101 265.924C318.171 264.918 318.516 263.888 319.313 263.14C317.334 263.346 316.619 263.942 315.856 264.806C314.012 266.896 315.249 269.195 316.386 268.729C317.522 268.264 318.029 266.965 318.101 265.924Z" fill="#E5E6ED"/>
<path d="M318.1 263.759C316.098 264.926 315.508 267.67 315.324 269.02L315.594 269.068C315.745 266.256 317.019 264.403 318.1 263.759C318.134 263.739 318.169 263.719 318.205 263.7C318.17 263.719 318.135 263.738 318.1 263.759Z" fill="#727785"/>
<path d="M316.264 264.623C315.953 265.076 316.105 265.725 316.202 266.033L316.265 266.016C316.012 265.397 316.098 264.871 316.264 264.623C316.27 264.615 316.275 264.607 316.281 264.6C316.275 264.607 316.27 264.615 316.264 264.623Z" fill="#727785"/>
<path d="M317.293 264.923C317.141 265.184 316.803 265.262 316.638 265.286L316.633 265.251C316.977 265.23 317.209 265.064 317.293 264.923C317.296 264.918 317.298 264.914 317.301 264.909C317.298 264.914 317.296 264.918 317.293 264.923Z" fill="#727785"/>
<path d="M315.519 265.67C315.335 266.188 315.649 266.776 315.822 267.049L315.878 267.016C315.475 266.484 315.422 265.953 315.519 265.67C315.523 265.661 315.526 265.652 315.529 265.644C315.526 265.652 315.523 265.661 315.519 265.67Z" fill="#727785"/>
<path d="M317.258 265.875C316.986 266.352 316.337 266.499 316.017 266.546L316.005 266.482C316.672 266.439 317.108 266.133 317.258 265.875C317.263 265.866 317.268 265.858 317.272 265.85C317.268 265.858 317.263 265.866 317.258 265.875Z" fill="#727785"/>
<path d="M317.347 266.919C316.969 267.612 316.097 267.842 315.668 267.919L315.654 267.828C316.546 267.746 317.139 267.293 317.347 266.919C317.354 266.907 317.36 266.895 317.366 266.882C317.36 266.894 317.354 266.906 317.347 266.919Z" fill="#727785"/>
<path d="M296.5 266.729C296.466 266.137 296.271 265.528 295.807 265.082C296.97 265.218 297.387 265.573 297.829 266.088C298.899 267.331 298.155 268.674 297.489 268.392C296.824 268.11 296.535 267.342 296.5 266.729Z" fill="#E5E6ED"/>
<path d="M296.517 265.455C297.686 266.156 298.013 267.775 298.112 268.57L297.953 268.596C297.884 266.941 297.148 265.841 296.517 265.455C296.497 265.443 296.476 265.431 296.456 265.419C296.476 265.43 296.496 265.442 296.517 265.455Z" fill="#727785"/>
<path d="M297.591 265.977C297.77 266.246 297.677 266.626 297.617 266.807L297.58 266.796C297.733 266.434 297.687 266.124 297.591 265.977C297.588 265.972 297.584 265.967 297.581 265.963C297.584 265.967 297.587 265.972 297.591 265.977Z" fill="#727785"/>
<path d="M296.983 266.146C297.071 266.3 297.269 266.349 297.366 266.364L297.369 266.344C297.167 266.329 297.031 266.229 296.983 266.146C296.982 266.143 296.98 266.14 296.979 266.138C296.98 266.14 296.982 266.143 296.983 266.146Z" fill="#727785"/>
<path d="M298.021 266.598C298.126 266.905 297.937 267.248 297.833 267.407L297.8 267.388C298.041 267.077 298.076 266.765 298.021 266.598C298.019 266.593 298.018 266.588 298.016 266.583C298.018 266.588 298.019 266.593 298.021 266.598Z" fill="#727785"/>
<path d="M296.997 266.706C297.153 266.989 297.534 267.08 297.722 267.11L297.73 267.072C297.338 267.042 297.083 266.859 296.997 266.706C296.994 266.701 296.991 266.696 296.989 266.691C296.991 266.696 296.994 266.701 296.997 266.706Z" fill="#727785"/>
<path d="M296.937 267.319C297.154 267.73 297.666 267.872 297.917 267.92L297.926 267.867C297.402 267.812 297.057 267.541 296.937 267.319C296.933 267.312 296.929 267.305 296.926 267.298C296.929 267.305 296.933 267.312 296.937 267.319Z" fill="#727785"/>
<path d="M74.5896 300H63.9758C51.6784 300 56.9839 296.501 60.0949 295.823C53.141 293.448 58.2649 288.974 61.7798 290.84C59.5838 282.698 67.0867 284.394 68.5507 288.974C71.4786 284.225 76.6025 286.6 73.4916 291.688C78.7985 289.483 78.7985 293.894 76.6025 295.25C81.9094 296.099 78.9435 297.689 76.0155 297.689C79.4925 299.555 76.9305 300 74.5896 300Z" fill="#E9EBF2"/>
<path d="M80.4763 299.505H75.0565C68.777 299.505 71.4862 297.639 73.0748 297.277C69.5239 296.01 72.1403 293.624 73.9352 294.619C72.8138 290.277 76.6451 291.181 77.3926 293.624C78.8877 291.091 81.5042 292.358 79.9156 295.072C82.6255 293.896 82.6255 296.248 81.5042 296.971C84.2141 297.424 82.6996 298.272 81.2045 298.272C82.9799 299.267 81.6717 299.505 80.4763 299.505Z" fill="#DFE0E6"/>
<path d="M56.2465 287.448C55.9587 287.04 55.5483 286.692 55.0183 286.58C55.9099 286.159 56.3659 286.228 56.9112 286.399C58.2291 286.811 58.295 288.102 57.6938 288.197C57.0925 288.291 56.5447 287.871 56.2465 287.448Z" fill="#E5E6ED"/>
<path d="M55.6914 286.531C56.8394 286.511 57.7938 287.523 58.2181 288.048L58.1162 288.137C57.3303 286.985 56.3147 286.526 55.6914 286.531C55.6716 286.531 55.6517 286.532 55.6318 286.533C55.6513 286.532 55.6711 286.531 55.6914 286.531Z" fill="#727785"/>
<path d="M56.691 286.426C56.9393 286.538 57.0415 286.851 57.0793 287.007L57.0484 287.016C56.9966 286.689 56.8252 286.488 56.691 286.426C56.6867 286.424 56.6824 286.422 56.678 286.42C56.6823 286.422 56.6866 286.424 56.691 286.426Z" fill="#727785"/>
<path d="M56.3321 286.817C56.4636 286.888 56.6267 286.835 56.7031 286.803L56.696 286.787C56.545 286.866 56.4038 286.855 56.3321 286.817C56.3298 286.816 56.3275 286.814 56.3253 286.813C56.3275 286.814 56.3297 286.816 56.3321 286.817Z" fill="#727785"/>
<path d="M57.2756 286.678C57.4866 286.851 57.5046 287.18 57.501 287.34L57.4689 287.341C57.5031 287.012 57.3893 286.773 57.2756 286.678C57.2719 286.675 57.2682 286.672 57.2645 286.669C57.2682 286.672 57.2719 286.675 57.2756 286.678Z" fill="#727785"/>
<path d="M56.5911 287.211C56.829 287.344 57.142 287.239 57.2895 287.177L57.2782 287.147C56.9847 287.3 56.7209 287.282 56.5911 287.211C56.5869 287.209 56.5829 287.207 56.5788 287.204C56.5827 287.207 56.5868 287.209 56.5911 287.211Z" fill="#727785"/>
<path d="M56.8215 287.676C57.1597 287.873 57.5884 287.747 57.7897 287.67L57.7723 287.627C57.3735 287.822 57.006 287.782 56.8215 287.676C56.8156 287.673 56.8098 287.67 56.804 287.666C56.8096 287.67 56.8155 287.673 56.8215 287.676Z" fill="#727785"/>
<path d="M80.9787 290.917C81.2665 290.508 81.6769 290.16 82.2069 290.048C81.3153 289.628 80.8593 289.696 80.314 289.867C78.9961 290.279 78.9302 291.571 79.5314 291.665C80.1326 291.76 80.6805 291.339 80.9787 290.917Z" fill="#E5E6ED"/>
<path d="M81.5338 289.999C80.3858 289.98 79.4313 290.991 79.0071 291.516L79.109 291.605C79.8949 290.453 80.9105 289.994 81.5338 289.999C81.5536 289.999 81.5734 290 81.5934 290.001C81.5739 290 81.554 289.999 81.5338 289.999Z" fill="#727785"/>
<path d="M80.5342 289.894C80.2859 290.006 80.1836 290.32 80.1458 290.475L80.1767 290.484C80.2285 290.157 80.4 289.956 80.5342 289.894C80.5385 289.892 80.5428 289.89 80.5472 289.888C80.5429 289.89 80.5385 289.892 80.5342 289.894Z" fill="#727785"/>
<path d="M80.8931 290.285C80.7616 290.357 80.5985 290.303 80.5221 290.271L80.5292 290.255C80.6802 290.334 80.8214 290.323 80.8931 290.285C80.8954 290.284 80.8976 290.283 80.8999 290.281C80.8977 290.283 80.8954 290.284 80.8931 290.285Z" fill="#727785"/>
<path d="M79.9496 290.146C79.7386 290.319 79.7206 290.648 79.7241 290.808L79.7563 290.809C79.7221 290.48 79.8359 290.241 79.9496 290.146C79.9532 290.144 79.9569 290.141 79.9607 290.138C79.957 290.14 79.9533 290.143 79.9496 290.146Z" fill="#727785"/>
<path d="M80.6341 290.679C80.3962 290.812 80.0832 290.707 79.9357 290.645L79.947 290.615C80.2405 290.768 80.5043 290.75 80.6341 290.679C80.6382 290.677 80.6423 290.675 80.6464 290.672C80.6424 290.675 80.6384 290.677 80.6341 290.679Z" fill="#727785"/>
<path d="M80.4037 291.145C80.0655 291.342 79.6368 291.215 79.4354 291.138L79.4529 291.096C79.8517 291.29 80.2192 291.25 80.4037 291.145C80.4096 291.141 80.4154 291.138 80.4212 291.134C80.4155 291.138 80.4097 291.141 80.4037 291.145Z" fill="#727785"/>
<path d="M69.914 285.098C69.9487 284.6 70.1193 284.09 70.5146 283.719C69.5341 283.822 69.1796 284.117 68.8016 284.545C67.888 285.58 68.5008 286.719 69.064 286.489C69.6271 286.258 69.878 285.615 69.914 285.098Z" fill="#E5E6ED"/>
<path d="M69.9133 284.026C68.9214 284.604 68.629 285.964 68.5382 286.632L68.6715 286.656C68.7466 285.263 69.3777 284.345 69.9133 284.026C69.9304 284.016 69.9477 284.006 69.9653 283.997C69.9481 284.006 69.9307 284.015 69.9133 284.026Z" fill="#727785"/>
<path d="M69.0038 284.454C68.8496 284.679 68.9247 285 68.973 285.153L69.004 285.144C68.8789 284.838 68.9213 284.577 69.0038 284.454C69.0065 284.45 69.0092 284.446 69.012 284.442C69.0093 284.446 69.0065 284.45 69.0038 284.454Z" fill="#727785"/>
<path d="M69.5136 284.602C69.4381 284.732 69.2709 284.77 69.1889 284.783L69.1867 284.765C69.3569 284.755 69.4721 284.672 69.5136 284.602C69.5149 284.6 69.5162 284.598 69.5175 284.596C69.5163 284.598 69.515 284.6 69.5136 284.602Z" fill="#727785"/>
<path d="M68.6348 284.973C68.5436 285.229 68.6989 285.521 68.7849 285.656L68.8127 285.64C68.6129 285.376 68.5866 285.113 68.6348 284.973C68.6364 284.968 68.638 284.964 68.6397 284.959C68.638 284.964 68.6364 284.968 68.6348 284.973Z" fill="#727785"/>
<path d="M69.4964 285.074C69.3616 285.311 69.0397 285.383 68.8812 285.406L68.8753 285.375C69.2056 285.354 69.4221 285.202 69.4964 285.074C69.4988 285.07 69.501 285.066 69.5032 285.062C69.5011 285.066 69.4989 285.07 69.4964 285.074Z" fill="#727785"/>
<path d="M69.5404 285.591C69.353 285.935 68.9209 286.049 68.7086 286.087L68.7017 286.042C69.1434 286.001 69.4371 285.777 69.5404 285.591C69.5436 285.585 69.5468 285.579 69.5498 285.573C69.5469 285.579 69.5437 285.585 69.5404 285.591Z" fill="#727785"/>
<path d="M59.4658 285.002C59.449 284.709 59.3523 284.407 59.1225 284.186C59.6986 284.253 59.905 284.43 60.1243 284.684C60.6543 285.3 60.2854 285.966 59.9557 285.826C59.6261 285.686 59.4832 285.306 59.4658 285.002Z" fill="#E5E6ED"/>
<path d="M59.474 284.371C60.0534 284.719 60.2154 285.521 60.264 285.915L60.1854 285.928C60.1514 285.108 59.7868 284.563 59.474 284.371C59.464 284.365 59.4539 284.359 59.4436 284.354C59.4537 284.359 59.4638 284.365 59.474 284.371Z" fill="#727785"/>
<path d="M60.0059 284.629C60.095 284.763 60.0485 284.951 60.019 285.041L60.0008 285.035C60.0766 284.856 60.0536 284.702 60.0059 284.629C60.0044 284.627 60.0028 284.625 60.0012 284.623C60.0028 284.625 60.0044 284.627 60.0059 284.629Z" fill="#727785"/>
<path d="M59.7049 284.713C59.7484 284.79 59.8465 284.814 59.8947 284.821L59.8961 284.811C59.796 284.804 59.7289 284.754 59.7049 284.713C59.7042 284.712 59.7034 284.71 59.7027 284.709C59.7034 284.71 59.7041 284.712 59.7049 284.713Z" fill="#727785"/>
<path d="M60.2193 284.938C60.2711 285.089 60.1776 285.259 60.126 285.338L60.1098 285.329C60.2292 285.175 60.2466 285.02 60.2193 284.938C60.2184 284.935 60.2175 284.932 60.2165 284.93C60.2175 284.932 60.2184 284.935 60.2193 284.938Z" fill="#727785"/>
<path d="M59.7116 284.991C59.7892 285.131 59.9781 285.176 60.0712 285.191L60.0749 285.172C59.8807 285.157 59.7544 285.067 59.7116 284.991C59.7103 284.988 59.709 284.986 59.7077 284.983C59.7089 284.986 59.7102 284.988 59.7116 284.991Z" fill="#727785"/>
<path d="M59.682 285.295C59.7897 285.498 60.0431 285.569 60.1678 285.593L60.1721 285.566C59.9125 285.539 59.7414 285.405 59.682 285.295C59.6801 285.291 59.6783 285.288 59.6765 285.284C59.6782 285.288 59.68 285.291 59.682 285.295Z" fill="#727785"/>
<path d="M77.7594 288.47C77.7762 288.177 77.8729 287.875 78.1027 287.654C77.5266 287.722 77.3202 287.898 77.1009 288.153C76.5709 288.769 76.9398 289.434 77.2695 289.294C77.5991 289.154 77.742 288.774 77.7594 288.47Z" fill="#E5E6ED"/>
<path d="M77.7512 287.839C77.1718 288.187 77.0097 288.989 76.9612 289.383L77.0398 289.396C77.0738 288.576 77.4384 288.031 77.7512 287.839C77.7612 287.833 77.7713 287.827 77.7816 287.822C77.7715 287.827 77.7614 287.833 77.7512 287.839Z" fill="#727785"/>
<path d="M77.2192 288.098C77.1302 288.231 77.1767 288.419 77.2062 288.509L77.2244 288.504C77.1486 288.324 77.1715 288.17 77.2192 288.098C77.2208 288.095 77.2224 288.093 77.224 288.091C77.2224 288.093 77.2208 288.095 77.2192 288.098Z" fill="#727785"/>
<path d="M77.5203 288.181C77.4768 288.258 77.3787 288.282 77.3305 288.29L77.3291 288.279C77.4292 288.272 77.4963 288.223 77.5203 288.181C77.521 288.18 77.5217 288.179 77.5225 288.177C77.5218 288.179 77.521 288.18 77.5203 288.181Z" fill="#727785"/>
<path d="M77.0059 288.406C76.9541 288.557 77.0476 288.728 77.0992 288.807L77.1154 288.797C76.996 288.643 76.9786 288.488 77.0059 288.406C77.0068 288.403 77.0077 288.401 77.0087 288.398C77.0077 288.4 77.0068 288.403 77.0059 288.406Z" fill="#727785"/>
<path d="M77.5136 288.459C77.436 288.599 77.2471 288.644 77.154 288.659L77.1503 288.641C77.3445 288.626 77.4708 288.535 77.5136 288.459C77.5149 288.457 77.5162 288.454 77.5175 288.452C77.5163 288.454 77.515 288.457 77.5136 288.459Z" fill="#727785"/>
<path d="M77.5432 288.763C77.4355 288.967 77.1821 289.037 77.0574 289.061L77.0531 289.034C77.3127 289.007 77.4838 288.873 77.5432 288.763C77.5451 288.76 77.5469 288.756 77.5487 288.752C77.547 288.756 77.5451 288.76 77.5432 288.763Z" fill="#727785"/>
<path d="M121.59 300H110.976C98.6784 300 103.984 296.501 107.095 295.823C100.141 293.448 105.265 288.974 108.78 290.84C106.584 282.698 114.087 284.394 115.551 288.974C118.479 284.225 123.603 286.6 120.492 291.688C125.798 289.483 125.798 293.894 123.603 295.25C128.909 296.099 125.943 297.689 123.016 297.689C126.492 299.555 123.931 300 121.59 300Z" fill="#E9EBF2"/>
<path d="M127.476 299.505H122.057C115.777 299.505 118.486 297.639 120.075 297.277C116.524 296.01 119.14 293.624 120.935 294.619C119.814 290.277 123.645 291.181 124.393 293.624C125.888 291.091 128.504 292.358 126.916 295.072C129.626 293.896 129.626 296.248 128.504 296.971C131.214 297.424 129.7 298.272 128.204 298.272C129.98 299.267 128.672 299.505 127.476 299.505Z" fill="#DFE0E6"/>
<path d="M103.247 287.448C102.959 287.04 102.548 286.692 102.018 286.58C102.91 286.159 103.366 286.228 103.911 286.399C105.229 286.811 105.295 288.102 104.694 288.197C104.093 288.291 103.545 287.871 103.247 287.448Z" fill="#E5E6ED"/>
<path d="M102.691 286.531C103.839 286.511 104.794 287.523 105.218 288.048L105.116 288.137C104.33 286.985 103.315 286.526 102.691 286.531C102.672 286.531 102.652 286.532 102.632 286.533C102.651 286.532 102.671 286.531 102.691 286.531Z" fill="#727785"/>
<path d="M103.691 286.426C103.939 286.538 104.042 286.851 104.079 287.007L104.048 287.016C103.997 286.689 103.825 286.488 103.691 286.426C103.687 286.424 103.682 286.422 103.678 286.42C103.682 286.422 103.687 286.424 103.691 286.426Z" fill="#727785"/>
<path d="M103.332 286.817C103.464 286.888 103.627 286.835 103.703 286.803L103.696 286.787C103.545 286.866 103.404 286.855 103.332 286.817C103.33 286.816 103.328 286.814 103.325 286.813C103.327 286.814 103.33 286.816 103.332 286.817Z" fill="#727785"/>
<path d="M104.276 286.678C104.487 286.851 104.505 287.18 104.501 287.34L104.469 287.341C104.503 287.012 104.389 286.773 104.276 286.678C104.272 286.675 104.268 286.672 104.264 286.669C104.268 286.672 104.272 286.675 104.276 286.678Z" fill="#727785"/>
<path d="M103.591 287.211C103.829 287.344 104.142 287.239 104.29 287.177L104.278 287.147C103.985 287.3 103.721 287.282 103.591 287.211C103.587 287.209 103.583 287.207 103.579 287.204C103.583 287.207 103.587 287.209 103.591 287.211Z" fill="#727785"/>
<path d="M103.821 287.676C104.16 287.873 104.588 287.747 104.79 287.67L104.772 287.627C104.373 287.822 104.006 287.782 103.821 287.676C103.816 287.673 103.81 287.67 103.804 287.666C103.81 287.67 103.815 287.673 103.821 287.676Z" fill="#727785"/>
<path d="M127.979 290.917C128.266 290.508 128.677 290.16 129.207 290.048C128.315 289.628 127.859 289.696 127.314 289.867C125.996 290.279 125.93 291.571 126.531 291.665C127.133 291.76 127.68 291.339 127.979 290.917Z" fill="#E5E6ED"/>
<path d="M128.534 289.999C127.386 289.98 126.431 290.991 126.007 291.516L126.109 291.605C126.895 290.453 127.91 289.994 128.534 289.999C128.554 289.999 128.573 290 128.593 290.001C128.574 290 128.554 289.999 128.534 289.999Z" fill="#727785"/>
<path d="M127.534 289.894C127.286 290.006 127.184 290.32 127.146 290.475L127.177 290.484C127.229 290.157 127.4 289.956 127.534 289.894C127.538 289.892 127.543 289.89 127.547 289.888C127.543 289.89 127.539 289.892 127.534 289.894Z" fill="#727785"/>
<path d="M127.893 290.285C127.762 290.357 127.598 290.303 127.522 290.271L127.529 290.255C127.68 290.334 127.821 290.323 127.893 290.285C127.895 290.284 127.898 290.283 127.9 290.281C127.898 290.283 127.895 290.284 127.893 290.285Z" fill="#727785"/>
<path d="M126.95 290.146C126.739 290.319 126.721 290.648 126.724 290.808L126.756 290.809C126.722 290.48 126.836 290.241 126.95 290.146C126.953 290.144 126.957 290.141 126.961 290.138C126.957 290.14 126.953 290.143 126.95 290.146Z" fill="#727785"/>
<path d="M127.634 290.679C127.396 290.812 127.083 290.707 126.936 290.645L126.947 290.615C127.24 290.768 127.504 290.75 127.634 290.679C127.638 290.677 127.642 290.675 127.646 290.672C127.642 290.675 127.638 290.677 127.634 290.679Z" fill="#727785"/>
<path d="M127.404 291.145C127.065 291.342 126.637 291.215 126.435 291.138L126.453 291.096C126.852 291.29 127.219 291.25 127.404 291.145C127.41 291.141 127.415 291.138 127.421 291.134C127.416 291.138 127.41 291.141 127.404 291.145Z" fill="#727785"/>
<path d="M116.914 285.098C116.949 284.6 117.119 284.09 117.515 283.719C116.534 283.822 116.18 284.117 115.802 284.545C114.888 285.58 115.501 286.719 116.064 286.489C116.627 286.258 116.878 285.615 116.914 285.098Z" fill="#E5E6ED"/>
<path d="M116.913 284.026C115.921 284.604 115.629 285.964 115.538 286.632L115.672 286.656C115.747 285.263 116.378 284.345 116.913 284.026C116.93 284.016 116.948 284.006 116.965 283.997C116.948 284.006 116.931 284.015 116.913 284.026Z" fill="#727785"/>
<path d="M116.004 284.454C115.85 284.679 115.925 285 115.973 285.153L116.004 285.144C115.879 284.838 115.921 284.577 116.004 284.454C116.007 284.45 116.009 284.446 116.012 284.442C116.009 284.446 116.007 284.45 116.004 284.454Z" fill="#727785"/>
<path d="M116.514 284.602C116.438 284.732 116.271 284.77 116.189 284.783L116.187 284.765C116.357 284.755 116.472 284.672 116.514 284.602C116.515 284.6 116.516 284.598 116.517 284.596C116.516 284.598 116.515 284.6 116.514 284.602Z" fill="#727785"/>
<path d="M115.635 284.973C115.544 285.229 115.699 285.521 115.785 285.656L115.813 285.64C115.613 285.376 115.587 285.113 115.635 284.973C115.636 284.968 115.638 284.964 115.64 284.959C115.638 284.964 115.636 284.968 115.635 284.973Z" fill="#727785"/>
<path d="M116.496 285.074C116.362 285.311 116.04 285.383 115.881 285.406L115.875 285.375C116.206 285.354 116.422 285.202 116.496 285.074C116.499 285.07 116.501 285.066 116.503 285.062C116.501 285.066 116.499 285.07 116.496 285.074Z" fill="#727785"/>
<path d="M116.54 285.591C116.353 285.935 115.921 286.049 115.709 286.087L115.702 286.042C116.143 286.001 116.437 285.777 116.54 285.591C116.544 285.585 116.547 285.579 116.55 285.573C116.547 285.579 116.544 285.585 116.54 285.591Z" fill="#727785"/>
<path d="M106.466 285.002C106.449 284.709 106.352 284.407 106.122 284.186C106.699 284.253 106.905 284.43 107.124 284.684C107.654 285.3 107.285 285.966 106.956 285.826C106.626 285.686 106.483 285.306 106.466 285.002Z" fill="#E5E6ED"/>
<path d="M106.474 284.371C107.053 284.719 107.215 285.521 107.264 285.915L107.185 285.928C107.151 285.108 106.787 284.563 106.474 284.371C106.464 284.365 106.454 284.359 106.444 284.354C106.454 284.359 106.464 284.365 106.474 284.371Z" fill="#727785"/>
<path d="M107.006 284.629C107.095 284.763 107.049 284.951 107.019 285.041L107.001 285.035C107.077 284.856 107.054 284.702 107.006 284.629C107.004 284.627 107.003 284.625 107.001 284.623C107.003 284.625 107.004 284.627 107.006 284.629Z" fill="#727785"/>
<path d="M106.705 284.713C106.748 284.79 106.847 284.814 106.895 284.821L106.896 284.811C106.796 284.804 106.729 284.754 106.705 284.713C106.704 284.712 106.703 284.71 106.703 284.709C106.703 284.71 106.704 284.712 106.705 284.713Z" fill="#727785"/>
<path d="M107.219 284.938C107.271 285.089 107.178 285.259 107.126 285.338L107.11 285.329C107.229 285.175 107.247 285.02 107.219 284.938C107.218 284.935 107.217 284.932 107.216 284.93C107.217 284.932 107.218 284.935 107.219 284.938Z" fill="#727785"/>
<path d="M106.712 284.991C106.789 285.131 106.978 285.176 107.071 285.191L107.075 285.172C106.881 285.157 106.754 285.067 106.712 284.991C106.71 284.988 106.709 284.986 106.708 284.983C106.709 284.986 106.71 284.988 106.712 284.991Z" fill="#727785"/>
<path d="M106.682 285.295C106.79 285.498 107.043 285.569 107.168 285.593L107.172 285.566C106.913 285.539 106.741 285.405 106.682 285.295C106.68 285.291 106.678 285.288 106.677 285.284C106.678 285.288 106.68 285.291 106.682 285.295Z" fill="#727785"/>
<path d="M124.759 288.47C124.776 288.177 124.873 287.875 125.103 287.654C124.527 287.722 124.32 287.898 124.101 288.153C123.571 288.769 123.94 289.434 124.269 289.294C124.599 289.154 124.742 288.774 124.759 288.47Z" fill="#E5E6ED"/>
<path d="M124.751 287.839C124.172 288.187 124.01 288.989 123.961 289.383L124.04 289.396C124.074 288.576 124.438 288.031 124.751 287.839C124.761 287.833 124.771 287.827 124.782 287.822C124.772 287.827 124.761 287.833 124.751 287.839Z" fill="#727785"/>
<path d="M124.219 288.098C124.13 288.231 124.177 288.419 124.206 288.509L124.224 288.504C124.149 288.324 124.172 288.17 124.219 288.098C124.221 288.095 124.222 288.093 124.224 288.091C124.222 288.093 124.221 288.095 124.219 288.098Z" fill="#727785"/>
<path d="M124.52 288.181C124.477 288.258 124.379 288.282 124.331 288.29L124.329 288.279C124.429 288.272 124.496 288.223 124.52 288.181C124.521 288.18 124.522 288.179 124.522 288.177C124.522 288.179 124.521 288.18 124.52 288.181Z" fill="#727785"/>
<path d="M124.006 288.406C123.954 288.557 124.048 288.728 124.099 288.807L124.115 288.797C123.996 288.643 123.979 288.488 124.006 288.406C124.007 288.403 124.008 288.401 124.009 288.398C124.008 288.4 124.007 288.403 124.006 288.406Z" fill="#727785"/>
<path d="M124.514 288.459C124.436 288.599 124.247 288.644 124.154 288.659L124.15 288.641C124.345 288.626 124.471 288.535 124.514 288.459C124.515 288.457 124.516 288.454 124.518 288.452C124.516 288.454 124.515 288.457 124.514 288.459Z" fill="#727785"/>
<path d="M124.543 288.763C124.435 288.967 124.182 289.037 124.057 289.061L124.053 289.034C124.313 289.007 124.484 288.873 124.543 288.763C124.545 288.76 124.547 288.756 124.549 288.752C124.547 288.756 124.545 288.76 124.543 288.763Z" fill="#727785"/>
<path d="M121.341 268.554H125.236L134.088 296.173H112.488L121.341 268.554Z" fill="white"/>
<path fill-rule="evenodd" clip-rule="evenodd" d="M121.341 268.554H125.236L128.811 279.708H117.766L121.341 268.554ZM116.744 282.895L115.439 286.967H131.137L129.832 282.895H116.744ZM114.418 290.154H132.159L134.088 296.173H112.488L114.418 290.154Z" fill="#809FFF"/>
<rect x="107" y="296.173" width="32.5765" height="2.47864" fill="#809FFF"/>
<path fill-rule="evenodd" clip-rule="evenodd" d="M112.488 296.173L113.34 293.518H133.237L134.088 296.173H112.488Z" fill="black" fill-opacity="0.2"/>
<mask id="mask0_1013_22223" style="mask-type:alpha" maskUnits="userSpaceOnUse" x="107" y="268" width="33" height="31">
<path fill-rule="evenodd" clip-rule="evenodd" d="M121.341 268.554H125.236L128.811 279.708H117.766L121.341 268.554ZM116.744 282.895L115.439 286.967H131.137L129.832 282.895H116.744ZM114.418 290.154H132.159L134.088 296.173H112.488L114.418 290.154Z" fill="#2F63FF"/>
<rect x="107" y="296.173" width="32.5765" height="2.47864" fill="#2F63FF"/>
<path fill-rule="evenodd" clip-rule="evenodd" d="M112.488 296.173L113.34 293.518H133.237L134.088 296.173H112.488Z" fill="black" fill-opacity="0.2"/>
</mask>
<g mask="url(#mask0_1013_22223)">
<circle cx="102.751" cy="261.826" r="33.1076" fill="white" fill-opacity="0.2"/>
</g>
<path d="M2 300H402" stroke="#20242E" stroke-width="4" stroke-linecap="round" stroke-linejoin="round"/>
<rect x="148" y="176" width="6" height="122" fill="#20242E"/>
<rect x="143" y="176" width="8" height="122" fill="#334680"/>
<rect x="256" y="176" width="6" height="122" fill="#20242E"/>
<rect x="251" y="176" width="8" height="122" fill="#334680"/>
<rect x="123" y="187" width="158" height="22.5714" fill="#809FFF"/>
<path fill-rule="evenodd" clip-rule="evenodd" d="M259.631 209.571H281V187H268.541L259.631 209.571ZM255.562 187H227.719L218.809 209.571H246.652L255.562 187ZM186.898 187H214.741L205.831 209.571H177.988L186.898 187ZM173.919 187H146.076L137.167 209.571H165.009L173.919 187ZM123 187H133.098L124.188 209.571H123V187Z" fill="white"/>
<path opacity="0.2" fill-rule="evenodd" clip-rule="evenodd" d="M177.63 209.571L190.661 187H236.339L249.37 209.571H177.63Z" fill="#20242E"/>
<rect opacity="0.2" x="123" y="187" width="158" height="2.39" fill="#20242E"/>
<rect x="123" y="228" width="158" height="22.5714" fill="#809FFF"/>
<path fill-rule="evenodd" clip-rule="evenodd" d="M259.631 250.571H281V228H268.541L259.631 250.571ZM255.562 228H227.719L218.809 250.571H246.652L255.562 228ZM186.898 228H214.741L205.831 250.571H177.988L186.898 228ZM173.919 228H146.076L137.167 250.571H165.009L173.919 228ZM123 228H133.098L124.188 250.571H123V228Z" fill="white"/>
<path opacity="0.2" fill-rule="evenodd" clip-rule="evenodd" d="M257.141 228L257.881 229.282C261.743 235.971 256.916 244.332 249.192 244.332H169.251C161.527 244.332 156.699 235.971 160.561 229.282L161.301 228H257.141Z" fill="#20242E"/>
<rect opacity="0.2" x="123" y="228" width="158" height="2.39" fill="#20242E"/>
<path d="M194.041 153.406C198.008 146.534 207.927 146.534 211.895 153.406L252.958 224.53C256.926 231.402 251.967 239.992 244.032 239.992H161.904C153.969 239.992 149.009 231.402 152.977 224.53L194.041 153.406Z" fill="#2854D9"/>
<path d="M193.829 153.462C197.027 147.923 205.021 147.923 208.219 153.462L249.283 224.587C252.48 230.125 248.483 237.048 242.088 237.048H159.96C153.565 237.048 149.567 230.125 152.765 224.587L193.829 153.462Z" fill="white" stroke="#2F63FF" stroke-width="4"/>
<path d="M189.698 223.608V219.008H187.458V212.528H182.218V219.008H176.898L184.778 200.408H179.538L171.658 219.008V223.608H182.218V228.008H187.458V223.608H189.698ZM195.117 226.088C196.477 227.688 198.557 228.448 201.357 228.448C204.157 228.448 206.197 227.648 207.557 226.048C208.917 224.448 209.597 222.088 209.597 218.928V209.168C209.597 206.128 208.917 203.848 207.557 202.288C206.197 200.768 204.157 199.968 201.357 199.968C198.637 199.968 196.597 200.768 195.197 202.328C193.797 203.888 193.117 206.168 193.117 209.168V218.928C193.117 222.128 193.757 224.488 195.117 226.088ZM203.717 222.688C203.317 223.488 202.517 223.888 201.357 223.888C200.197 223.888 199.397 223.488 198.997 222.688C198.597 221.888 198.397 220.488 198.397 218.488V209.928C198.397 207.968 198.597 206.568 198.997 205.768C199.397 204.968 200.157 204.568 201.357 204.568C202.517 204.568 203.317 204.968 203.717 205.768C204.117 206.568 204.357 207.968 204.357 209.928V218.488C204.357 220.488 204.117 221.888 203.717 222.688ZM215.506 226.608C216.946 227.848 218.946 228.448 221.546 228.448C223.106 228.448 224.506 228.128 225.786 227.488C227.026 226.848 227.986 225.888 228.706 224.688C229.386 223.488 229.746 222.088 229.746 220.448V219.688C229.746 218.168 229.426 216.848 228.786 215.728C228.146 214.648 227.266 213.848 226.066 213.328C227.106 212.768 227.906 212.048 228.466 211.088C229.026 210.128 229.306 209.048 229.306 207.848V207.248C229.306 205.048 228.586 203.288 227.226 201.968C225.826 200.648 223.906 199.968 221.506 199.968C219.026 199.968 217.066 200.648 215.666 201.928C214.266 203.208 213.586 205.008 213.586 207.328V208.008H218.386V207.328C218.386 206.448 218.626 205.728 219.146 205.208C219.626 204.688 220.346 204.408 221.306 204.408C222.186 204.408 222.906 204.728 223.426 205.288C223.946 205.848 224.226 206.648 224.226 207.648V208.248C224.226 209.288 223.946 210.128 223.386 210.688C222.826 211.288 222.026 211.568 221.026 211.568H219.666V216.008H221.066C222.226 216.008 223.106 216.328 223.746 216.968C224.346 217.608 224.666 218.528 224.666 219.728V220.448C224.666 221.568 224.346 222.408 223.786 223.048C223.226 223.688 222.426 224.008 221.466 224.008C220.426 224.008 219.626 223.768 219.066 223.288C218.506 222.808 218.266 222.048 218.266 221.088V220.488H213.386V221.328C213.386 223.608 214.066 225.368 215.506 226.608Z" fill="#2F63FF"/>
<path d="M199.628 181.29H202.718L203.498 171.03L203.648 166.56H198.698L198.848 171.03L199.628 181.29ZM201.188 189.3C202.688 189.3 203.828 188.19 203.828 186.63C203.828 185.07 202.688 183.99 201.188 183.99C199.658 183.99 198.518 185.07 198.518 186.63C198.518 188.19 199.628 189.3 201.188 189.3Z" fill="#2F63FF"/>
</svg>
